<svg xmlns="http://www.w3.org/2000/svg" width="36" height="36" viewBox="0 0 36 36">
  <g id="그룹_567" data-name="그룹 567" transform="translate(0.064 -0.028)">
    <rect id="사각형_32" data-name="사각형 32" width="36" height="36" rx="18" transform="translate(-0.064 0.028)" fill="#f9e000"/>
    <g id="그룹_101" data-name="그룹 101" transform="translate(7.662 8.766)">
      <path id="패스_1100" data-name="패스 1100" d="M192.612,193.223c-5.77,0-10.448,3.719-10.448,8.306a7.992,7.992,0,0,0,4.537,6.85l-.755,4.049a.232.232,0,0,0,.356.236l4.488-2.956s1.2.126,1.822.126c5.77,0,10.448-3.719,10.448-8.306S198.382,193.223,192.612,193.223Z" transform="translate(-182.164 -193.223)" fill="#3c1e1e"/>
      <g id="그룹_100" data-name="그룹 100" transform="translate(2.693 5.919)">
        <path id="패스_1101" data-name="패스 1101" d="M211.8,251.31h-3.011a.516.516,0,0,0,0,1.032h.979v3.635a.507.507,0,0,0,.147.356.5.5,0,0,0,.352.147h.109a.5.5,0,0,0,.351-.147.508.508,0,0,0,.147-.356v-3.635h.925a.516.516,0,0,0,0-1.032Z" transform="translate(-208.277 -251.238)" fill="#f9e000"/>
        <path id="패스_1102" data-name="패스 1102" d="M288.925,254.881h-1.4v-3.713a.556.556,0,1,0-1.112,0v4.181a.467.467,0,0,0,.465.469h2.046a.469.469,0,0,0,0-.937Z" transform="translate(-278.355 -250.609)" fill="#f9e000"/>
        <path id="패스_1103" data-name="패스 1103" d="M322.164,255.052l-1.56-2.066,1.41-1.421a.5.5,0,0,0,0-.7.487.487,0,0,0-.692,0l-1.746,1.759v-1.459a.556.556,0,1,0-1.112,0v4.124a.556.556,0,1,0,1.112,0v-1.272l.317-.32,1.476,1.952a.494.494,0,0,0,.7.1A.5.5,0,0,0,322.164,255.052Z" transform="translate(-307.101 -250.609)" fill="#f9e000"/>
        <path id="패스_1104" data-name="패스 1104" d="M244.308,255.186l-1.5-4.137-.005,0a.737.737,0,0,0-.7-.435.86.86,0,0,0-.241.034.788.788,0,0,0-.208.095.691.691,0,0,0-.161.144.617.617,0,0,0-.077.122c-.018.039-.092.25-.116.315l-.026.069-.031.083-.035.095-.039.106-.043.117-.047.126-.05.135-.052.142-.055.148-.057.154-.058.158-.06.161-.061.164-.061.165-.061.165-.061.165-.06.163-.059.16-.058.156-.056.152-.054.146-.051.139-.049.131-.045.123-.042.113-.038.1-.033.09-.029.077-.023.063-.018.049-.012.033-.006.017a.5.5,0,0,0,.3.639.5.5,0,0,0,.635-.307l.255-.734h2.054l.255.734a.5.5,0,0,0,.635.307A.5.5,0,0,0,244.308,255.186Zm-2.922-1.339.69-1.984.022,0,.689,1.982Z" transform="translate(-236.581 -250.609)" fill="#f9e000"/>
      </g>
    </g>
  </g>
</svg>
